<mxfile host="app.diagrams.net" modified="2021-12-01T07:49:26.819Z" agent="5.0 (Windows NT 10.0; Win64; x64) AppleWebKit/537.36 (KHTML, like Gecko) Chrome/96.0.4664.45 Safari/537.36" etag="8BRN1-M8aE7zoLOAvXWc" version="15.8.8" type="github">
  <diagram id="8IfeXw4iu5hIM_P0nCsx" name="نمودار سطح 1">
    <mxGraphModel dx="942" dy="1751" grid="1" gridSize="10" guides="1" tooltips="1" connect="1" arrows="1" fold="1" page="1" pageScale="1" pageWidth="827" pageHeight="1169" math="0" shadow="0">
      <root>
        <mxCell id="0" />
        <mxCell id="1" parent="0" />
        <mxCell id="9SigzvAa_DoK5RJEVX7P-7" style="edgeStyle=orthogonalEdgeStyle;rounded=0;orthogonalLoop=1;jettySize=auto;html=1;exitX=1;exitY=0.5;exitDx=0;exitDy=0;fontFamily=Verdana;fontSize=18;" edge="1" parent="1">
          <mxGeometry relative="1" as="geometry">
            <mxPoint x="680" y="279.5" as="targetPoint" />
            <mxPoint x="560" y="279.5" as="sourcePoint" />
          </mxGeometry>
        </mxCell>
        <mxCell id="9SigzvAa_DoK5RJEVX7P-10" style="edgeStyle=orthogonalEdgeStyle;rounded=0;orthogonalLoop=1;jettySize=auto;html=1;exitX=0;exitY=0.5;exitDx=0;exitDy=0;fontFamily=Verdana;fontSize=18;entryX=1;entryY=0.5;entryDx=0;entryDy=0;" edge="1" parent="1">
          <mxGeometry relative="1" as="geometry">
            <mxPoint x="120" y="268" as="targetPoint" />
            <mxPoint x="240" y="268" as="sourcePoint" />
          </mxGeometry>
        </mxCell>
        <mxCell id="9SigzvAa_DoK5RJEVX7P-11" style="edgeStyle=orthogonalEdgeStyle;rounded=0;orthogonalLoop=1;jettySize=auto;html=1;exitX=0.5;exitY=1;exitDx=0;exitDy=0;fontFamily=Verdana;fontSize=18;" edge="1" parent="1" source="9SigzvAa_DoK5RJEVX7P-1" target="9SigzvAa_DoK5RJEVX7P-12">
          <mxGeometry relative="1" as="geometry">
            <mxPoint x="400" y="460" as="targetPoint" />
          </mxGeometry>
        </mxCell>
        <mxCell id="9SigzvAa_DoK5RJEVX7P-1" value="&lt;h1&gt;&lt;font style=&quot;font-size: 28px&quot;&gt;صندوق قرض الحسنه&lt;/font&gt;&lt;/h1&gt;" style="ellipse;whiteSpace=wrap;html=1;" vertex="1" parent="1">
          <mxGeometry x="240" y="150" width="320" height="260" as="geometry" />
        </mxCell>
        <mxCell id="9SigzvAa_DoK5RJEVX7P-5" value="" style="endArrow=classic;html=1;rounded=0;fontFamily=Verdana;exitX=0.5;exitY=0;exitDx=0;exitDy=0;" edge="1" parent="1">
          <mxGeometry width="50" height="50" relative="1" as="geometry">
            <mxPoint x="390" y="150" as="sourcePoint" />
            <mxPoint x="390" y="80" as="targetPoint" />
          </mxGeometry>
        </mxCell>
        <mxCell id="9SigzvAa_DoK5RJEVX7P-17" style="edgeStyle=orthogonalEdgeStyle;rounded=0;orthogonalLoop=1;jettySize=auto;html=1;fontFamily=Verdana;fontSize=18;" edge="1" parent="1">
          <mxGeometry relative="1" as="geometry">
            <mxPoint x="414" y="150" as="targetPoint" />
            <mxPoint x="414" y="80" as="sourcePoint" />
          </mxGeometry>
        </mxCell>
        <mxCell id="9SigzvAa_DoK5RJEVX7P-6" value="&lt;h5&gt;&lt;span style=&quot;font-size: 18px&quot;&gt;کاربران&lt;/span&gt;&lt;/h5&gt;" style="rounded=0;whiteSpace=wrap;html=1;fontFamily=Verdana;fontSize=28;" vertex="1" parent="1">
          <mxGeometry x="340" y="20" width="120" height="60" as="geometry" />
        </mxCell>
        <mxCell id="9SigzvAa_DoK5RJEVX7P-22" style="edgeStyle=orthogonalEdgeStyle;rounded=0;orthogonalLoop=1;jettySize=auto;html=1;exitX=0;exitY=0.5;exitDx=0;exitDy=0;entryX=1;entryY=0.5;entryDx=0;entryDy=0;fontFamily=Verdana;fontSize=18;" edge="1" parent="1">
          <mxGeometry relative="1" as="geometry">
            <mxPoint x="680" y="290" as="sourcePoint" />
            <mxPoint x="560" y="290" as="targetPoint" />
          </mxGeometry>
        </mxCell>
        <mxCell id="9SigzvAa_DoK5RJEVX7P-8" value="مدیران" style="rounded=0;whiteSpace=wrap;html=1;fontFamily=Verdana;fontSize=18;" vertex="1" parent="1">
          <mxGeometry x="680" y="250" width="120" height="60" as="geometry" />
        </mxCell>
        <mxCell id="9SigzvAa_DoK5RJEVX7P-26" style="edgeStyle=orthogonalEdgeStyle;rounded=0;orthogonalLoop=1;jettySize=auto;html=1;exitX=1;exitY=0.5;exitDx=0;exitDy=0;fontFamily=Verdana;fontSize=18;" edge="1" parent="1">
          <mxGeometry relative="1" as="geometry">
            <mxPoint x="240" y="296" as="targetPoint" />
            <mxPoint x="120" y="296" as="sourcePoint" />
          </mxGeometry>
        </mxCell>
        <mxCell id="9SigzvAa_DoK5RJEVX7P-9" value="درگاه های آنلاین" style="rounded=0;whiteSpace=wrap;html=1;fontFamily=Verdana;fontSize=18;" vertex="1" parent="1">
          <mxGeometry y="250" width="120" height="60" as="geometry" />
        </mxCell>
        <mxCell id="9SigzvAa_DoK5RJEVX7P-12" value="بانک&amp;nbsp;" style="rounded=0;whiteSpace=wrap;html=1;fontFamily=Verdana;fontSize=18;" vertex="1" parent="1">
          <mxGeometry x="340" y="480" width="120" height="60" as="geometry" />
        </mxCell>
      </root>
    </mxGraphModel>
  </diagram>
</mxfile>
